<svg width="38" height="39" viewBox="0 0 38 39" fill="none" xmlns="http://www.w3.org/2000/svg">
<g clip-path="url(#clip0_161459_2893)">
<path d="M38 19.7162C38 9.15867 29.4934 0.600098 19 0.600098C8.50658 0.600098 0 9.15867 0 19.7162C0 29.2576 6.94803 37.166 16.0312 38.6001V25.242H11.207V19.7162H16.0312V15.5047C16.0312 10.7137 18.8678 8.06733 23.2078 8.06733C25.2866 8.06733 27.4609 8.44069 27.4609 8.44069V13.145H25.0651C22.7048 13.145 21.9688 14.6186 21.9688 16.1303V19.7162H27.2383L26.3959 25.242H21.9688V38.6001C31.052 37.166 38 29.2576 38 19.7162Z" fill="#24A3FF"/>
</g>
<defs>
<clipPath id="clip0_161459_2893">
<rect width="38" height="38" fill="white" transform="translate(0 0.600098)"/>
</clipPath>
</defs>
</svg>
